<?xml version="1.0" standalone="no"?>
<!DOCTYPE svg PUBLIC "-//W3C//DTD SVG 20010904//EN"
 "http://www.w3.org/TR/2001/REC-SVG-20010904/DTD/svg10.dtd">
<svg version="1.0" xmlns="http://www.w3.org/2000/svg"
 width="1500.000000pt" height="1500.000000pt" viewBox="0 0 1500.000000 1500.000000"
 preserveAspectRatio="xMidYMid meet">
<metadata>
Created by potrace 1.11, written by Peter Selinger 2001-2013
</metadata>
<g transform="translate(0.000000,1500.000000) scale(0.100000,-0.100000)"
fill="#000000" stroke="none">
<path d="M7448 14184 c-3 -2 -81 -7 -174 -10 -93 -3 -189 -7 -214 -9 -106 -8
-246 -22 -305 -31 -22 -3 -56 -8 -75 -10 -60 -6 -260 -41 -345 -60 -16 -4 -37
-8 -45 -9 -9 0 -21 -4 -28 -9 -6 -4 -12 -5 -12 -3 0 4 -69 -12 -150 -34 -19
-5 -46 -12 -60 -15 -45 -9 -215 -62 -252 -77 -20 -8 -39 -13 -42 -10 -3 3 -11
1 -18 -4 -10 -8 -67 -31 -98 -38 -3 -1 -14 -5 -25 -10 -11 -4 -69 -28 -129
-52 -60 -24 -121 -50 -137 -59 -16 -8 -31 -14 -34 -14 -3 0 -49 -21 -103 -46
-53 -26 -99 -48 -102 -49 -19 -7 -46 -19 -50 -24 -3 -3 -30 -18 -60 -33 -80
-39 -308 -172 -345 -201 -5 -4 -48 -33 -95 -63 -47 -31 -123 -84 -170 -117
-106 -77 -100 -72 -134 -102 -16 -14 -32 -25 -36 -25 -3 0 -16 -9 -27 -20 -12
-11 -48 -41 -80 -67 -32 -26 -64 -53 -71 -60 -7 -6 -33 -29 -59 -50 -116 -95
-445 -423 -568 -568 -33 -38 -70 -80 -82 -92 -13 -12 -23 -26 -23 -32 0 -5 -3
-11 -7 -13 -9 -4 -85 -95 -128 -153 -16 -22 -33 -44 -37 -50 -81 -102 -295
-426 -364 -552 -80 -144 -198 -382 -239 -478 -25 -60 -50 -119 -55 -130 -16
-38 -23 -60 -22 -67 1 -5 -3 -8 -10 -8 -6 0 -9 -3 -5 -6 3 -3 -3 -25 -13 -49
-18 -43 -99 -277 -105 -305 -2 -8 -11 -42 -21 -75 -10 -33 -19 -64 -20 -70 -1
-5 -10 -39 -19 -75 -9 -36 -19 -76 -21 -90 -3 -14 -9 -41 -14 -60 -5 -19 -12
-51 -15 -70 -3 -19 -8 -46 -10 -60 -3 -14 -7 -36 -10 -50 -3 -14 -7 -36 -10
-50 -3 -14 -7 -38 -10 -55 -3 -28 -11 -80 -20 -131 -2 -12 -6 -48 -10 -80 -4
-33 -9 -70 -11 -84 -2 -14 -7 -61 -10 -105 -3 -44 -8 -98 -11 -120 -4 -22 -8
-1917 -10 -4211 l-3 -4170 5412 0 5413 1 -1 4085 c0 3680 -3 4230 -19 4381
-13 122 -17 167 -20 194 -1 17 -5 44 -8 60 -4 17 -9 53 -12 80 -3 28 -7 61
-10 75 -3 14 -8 41 -11 60 -3 19 -12 69 -21 110 -8 41 -17 89 -19 105 -3 17
-7 37 -10 45 -3 8 -8 26 -10 40 -3 14 -12 52 -21 85 -15 59 -22 88 -27 112 -1
7 -5 16 -9 19 -4 4 -7 15 -7 23 0 9 -12 52 -26 96 -14 44 -27 87 -29 95 -14
61 -151 412 -190 491 -14 27 -26 52 -27 56 -5 29 -12 43 -19 43 -5 0 -8 3 -7
8 4 15 -123 256 -225 427 -112 187 -320 485 -426 611 -14 17 -42 50 -63 75
-20 24 -46 55 -58 69 -110 127 -158 178 -315 335 -174 174 -232 228 -380 353
-46 39 -174 141 -230 182 -33 25 -62 47 -65 50 -22 23 -336 230 -349 230 -5 0
-11 4 -13 8 -2 5 -36 28 -75 51 -254 147 -534 281 -777 372 -45 17 -94 36
-111 42 -16 7 -32 12 -35 12 -3 1 -63 19 -135 42 -157 49 -222 67 -295 83 -30
7 -66 16 -80 20 -14 5 -43 12 -65 16 -22 4 -44 8 -50 10 -17 4 -79 16 -100 19
-11 1 -47 7 -80 13 -33 6 -76 13 -95 16 -19 3 -46 8 -60 10 -14 3 -50 8 -80
11 -30 3 -68 8 -85 10 -16 2 -64 7 -105 10 -41 4 -91 8 -110 10 -19 2 -134 7
-255 10 -121 3 -225 8 -232 10 -6 2 -13 2 -15 -1z m-2965 -3783 c39 -27 115
-85 167 -129 249 -210 346 -336 457 -592 51 -117 81 -258 81 -373 0 -279 -136
-560 -363 -747 -40 -32 -273 -198 -327 -231 -105 -66 -241 -129 -280 -130 -50
-2 -101 17 -243 89 -332 168 -571 444 -634 732 -40 184 -33 308 31 500 66 200
137 323 244 425 59 56 125 115 129 115 2 0 19 14 37 31 48 44 524 360 556 368
35 10 58 1 145 -58z m3532 -1107 c0 -715 -3 -1084 -10 -1085 -48 -5 -389 -3
-397 2 -6 4 -8 11 -5 16 3 5 2 15 -2 22 -5 7 -5 28 -1 46 4 18 3 40 -2 49 -5
9 -6 21 -2 28 8 13 12 168 4 168 -3 0 -4 19 -2 42 6 111 6 158 1 158 -4 0 -3
15 1 34 4 19 4 40 -1 47 -4 7 -5 17 -2 22 7 12 10 177 3 177 -3 0 -5 23 -5 50
0 28 2 50 5 50 3 0 5 22 5 50 0 27 -3 50 -6 50 -4 0 -3 15 1 34 4 19 4 40 -1
47 -4 7 -5 17 -2 22 7 12 10 177 3 177 -3 0 -4 19 -2 42 6 111 6 158 1 158 -4
0 -3 15 1 34 4 18 3 41 -2 50 -5 9 -6 21 -2 28 10 16 11 68 1 68 -5 0 -5 5 -2
11 9 14 12 129 4 129 -4 0 -3 15 1 34 4 18 3 41 -2 50 -5 9 -6 22 -2 28 5 7 8
27 7 44 0 31 3 34 116 87 106 51 226 101 243 102 3 0 9 2 12 5 3 3 13 6 23 7
17 1 18 -45 18 -1083z m-1170 765 c-1 -284 -2 -280 113 -238 31 11 64 22 72
24 8 2 44 15 79 29 36 14 73 26 83 26 45 0 166 -160 238 -312 67 -144 93 -263
93 -423 0 -161 -24 -269 -89 -398 -76 -153 -177 -257 -378 -390 -10 -6 -36
-24 -57 -39 -21 -16 -43 -28 -48 -28 -5 0 -11 -4 -13 -8 -4 -9 -120 -82 -158
-98 -20 -9 -32 -7 -62 10 -47 27 -108 76 -179 146 -104 103 -94 -2 -95 953
l-1 838 29 24 c16 14 46 32 66 41 20 9 55 25 77 35 70 31 203 60 220 48 6 -5
10 -94 10 -240z m3309 232 c3 -9 4 -62 4 -119 -1 -56 2 -105 5 -108 3 -3 3
-13 -1 -22 -7 -19 -6 -60 3 -88 16 -50 100 -67 188 -38 20 7 38 13 40 13 9 -1
71 28 112 53 61 38 198 176 215 218 7 16 16 30 20 30 4 0 11 15 14 34 4 22 13
36 26 39 28 7 31 -2 29 -85 -4 -266 -4 -269 54 -310 12 -9 18 -29 20 -64 4
-71 -5 -93 -37 -87 -23 5 -26 2 -27 -23 -2 -95 1 -1172 4 -1185 1 -9 18 -46
36 -83 29 -56 32 -68 20 -82 -20 -24 -154 -113 -227 -150 -54 -28 -67 -31 -93
-22 -33 11 -90 73 -122 133 -22 40 -22 45 -24 680 -2 352 -3 661 -3 686 l0 46
-115 0 c-64 0 -118 -4 -121 -9 -7 -10 -7 -1154 -1 -1198 2 -14 18 -51 36 -82
39 -69 35 -81 -47 -135 -31 -20 -59 -40 -62 -43 -10 -12 -125 -73 -151 -80
-34 -10 -74 13 -116 66 -55 71 -86 157 -73 205 4 15 4 32 0 39 -4 7 -4 25 0
40 4 15 4 33 0 40 -4 7 -4 25 0 40 4 15 4 33 0 41 -5 7 -6 17 -3 22 7 12 7
123 -1 135 -3 6 -2 13 3 16 6 4 6 18 1 36 -5 17 -5 30 0 30 5 0 5 13 0 30 -5
18 -5 32 1 36 5 3 6 10 3 16 -4 6 -6 38 -5 72 1 33 2 67 1 74 -1 57 -1 127 1
155 0 6 0 23 0 37 -1 14 -1 48 0 77 1 28 -2 56 -5 62 -4 5 -2 12 3 15 6 4 6
18 1 36 -5 17 -5 30 0 30 5 0 5 13 0 30 -5 17 -5 32 0 35 5 3 6 13 3 21 -3 9
-6 37 -7 62 l-1 47 -65 1 c-121 3 -110 -5 -108 70 1 36 4 67 7 69 3 1 31 6 61
10 62 8 145 39 205 77 89 57 209 185 235 253 6 14 14 36 19 48 11 27 38 32 45
8z m-1738 -66 c38 -35 101 -52 202 -54 32 -1 32 -1 17 -28 -46 -86 -170 -163
-264 -165 -115 -2 -221 47 -221 102 0 24 112 136 160 159 43 22 72 18 106 -14z
m-2784 -373 c50 -54 98 -124 103 -153 2 -11 7 -25 12 -32 4 -6 8 -257 8 -557
1 -300 5 -556 10 -570 15 -46 82 -85 117 -70 l23 11 -1 682 c-1 375 0 689 2
697 3 13 33 15 201 13 109 0 203 -2 209 -2 7 -1 10 -207 10 -683 0 -640 2
-685 19 -718 10 -19 21 -37 24 -40 3 -3 14 -14 24 -26 16 -20 16 -22 0 -40
-10 -10 -32 -28 -48 -40 -52 -36 -236 -124 -259 -124 -26 0 -60 30 -135 117
l-53 63 -31 -14 c-52 -22 -115 -54 -236 -116 l-114 -59 -28 20 c-37 26 -85 88
-106 136 -15 34 -17 96 -19 583 l-1 545 -28 80 c-15 44 -30 85 -34 90 -14 20
-5 34 79 120 174 180 168 177 252 87z m2913 -16 c32 -42 105 -182 105 -202 0
-7 5 -14 12 -14 6 0 9 -3 5 -6 -3 -3 -1 -18 5 -33 12 -29 19 -1345 7 -1371 -6
-13 -39 -15 -213 -14 -113 0 -209 3 -212 6 -3 4 -5 302 -5 664 0 455 -3 664
-11 678 -6 12 -24 37 -39 57 l-29 37 43 35 c23 19 58 49 77 67 52 48 110 95
154 124 44 30 60 25 101 -28z m964 -181 c115 -162 145 -206 146 -217 0 -3 3
-10 7 -14 11 -11 -2 -54 -30 -99 -31 -49 -141 -160 -252 -255 -91 -77 -210
-195 -210 -207 0 -38 117 -160 275 -288 61 -49 113 -94 118 -100 7 -10 -61
-80 -153 -157 -143 -120 -137 -118 -192 -85 -70 41 -229 187 -286 262 -48 64
-128 205 -116 205 2 0 -3 14 -12 31 -8 17 -17 38 -19 47 -2 10 -9 40 -15 67
-6 28 -14 59 -16 70 -6 26 -6 141 0 182 14 96 76 251 142 355 80 125 320 378
400 422 29 15 29 15 67 -27 21 -23 87 -109 146 -192z m2006 168 c68 -83 63
-77 105 -138 19 -27 39 -55 45 -62 28 -33 35 -43 35 -48 0 -3 15 -26 34 -52
47 -67 66 -107 61 -131 -10 -56 -127 -188 -280 -318 -130 -110 -216 -200 -209
-221 16 -44 106 -143 203 -223 23 -19 50 -42 59 -50 9 -9 35 -29 57 -45 22
-16 49 -38 60 -48 20 -18 20 -19 -2 -37 -13 -10 -23 -22 -23 -27 -1 -4 -24
-27 -53 -51 -29 -23 -66 -55 -84 -70 -56 -49 -69 -59 -100 -77 -31 -18 -31
-18 -74 8 -24 14 -62 42 -84 61 -22 20 -64 57 -93 83 -167 147 -294 425 -294
643 0 36 13 121 23 147 5 13 5 23 2 23 -4 0 -2 5 5 12 7 7 12 18 12 26 0 25
97 216 136 268 93 124 294 330 362 371 20 13 38 23 39 23 1 0 27 -30 58 -67z
m-7450 -1708 c22 -3 51 -8 65 -11 14 -3 39 -6 55 -8 17 -2 55 -7 85 -11 30 -4
69 -9 85 -11 44 -5 154 -4 200 1 186 23 661 17 735 -9 8 -3 29 -7 45 -9 123
-18 294 -133 407 -272 45 -56 150 -214 153 -232 2 -10 4 -18 5 -18 13 0 18
-184 6 -250 -10 -56 -68 -172 -111 -223 -50 -58 -143 -128 -201 -151 -27 -10
-74 -30 -104 -43 -30 -14 -97 -42 -147 -63 -51 -21 -90 -41 -88 -45 6 -10 211
-110 224 -110 5 0 22 -7 38 -15 15 -8 55 -26 88 -40 79 -33 89 -49 64 -100
-34 -70 -48 -145 -45 -240 2 -75 7 -99 29 -142 31 -60 94 -113 158 -132 24 -7
51 -16 59 -19 21 -7 56 -11 123 -13 31 -1 57 -5 57 -8 0 -19 -132 -84 -215
-106 -51 -14 -198 -14 -245 0 -14 4 -36 9 -49 12 -71 17 -245 118 -323 188
-53 48 -128 142 -128 160 0 8 -6 20 -13 27 -39 41 -57 214 -42 398 4 41 6 84
6 94 0 18 -48 77 -60 73 -3 0 -45 18 -92 41 -57 28 -100 57 -128 87 -39 42
-43 44 -59 29 -18 -18 -22 -33 -22 -79 0 -62 0 -71 0 -119 0 -27 2 -52 5 -55
2 -4 0 -23 -4 -42 -4 -19 -5 -43 -1 -54 4 -11 4 -30 -1 -42 -5 -12 -4 -25 0
-28 5 -3 6 -20 2 -38 -5 -18 -5 -41 -1 -52 4 -11 4 -29 0 -40 -4 -11 -6 -29
-4 -40 4 -22 4 -26 5 -139 0 -44 2 -83 5 -88 3 -4 0 -8 -7 -8 -9 0 -9 -3 0
-14 7 -9 8 -17 3 -20 -6 -3 -7 -20 -3 -39 5 -18 5 -41 1 -51 -3 -10 -3 -40 0
-66 10 -81 34 -76 -329 -75 l-325 0 -1 1075 c-1 591 -5 1084 -10 1095 -5 11
-17 31 -27 46 -10 14 -16 32 -13 41 6 15 13 15 90 3z m6311 -1045 c0 -984 -4
-916 58 -993 l31 -39 -30 -25 c-48 -39 -166 -118 -210 -140 -58 -29 -93 -17
-139 50 -20 28 -36 57 -36 62 0 6 -14 24 -30 42 -42 44 -39 45 -220 -113 -19
-17 -49 -38 -66 -47 -29 -15 -34 -15 -62 1 -50 28 -102 79 -183 179 -32 40
-91 148 -115 211 -24 65 -26 73 -46 167 -12 55 -19 274 -9 290 3 6 7 17 8 26
8 50 61 197 103 284 47 96 81 141 249 333 75 86 135 148 161 165 23 15 28 15
58 0 17 -8 32 -19 32 -24 0 -15 27 -10 41 7 10 12 13 59 14 183 0 91 4 172 8
178 9 15 92 53 127 59 14 3 63 15 110 29 47 13 99 23 115 22 l30 -2 1 -905z
m-2240 428 c32 -29 78 -75 103 -102 25 -27 55 -59 66 -70 44 -46 105 -124 105
-135 0 -6 4 -11 10 -11 11 0 122 -221 115 -228 -2 -3 0 -12 5 -22 9 -17 16
-43 28 -110 8 -46 7 -215 -3 -265 -22 -123 -69 -214 -197 -383 -173 -227 -254
-311 -310 -319 -17 -3 -76 21 -88 36 -3 3 -30 26 -60 51 -85 69 -119 100 -177
160 -58 59 -136 175 -154 231 -7 19 -15 39 -19 44 -12 15 -41 155 -35 165 3 5
2 11 -3 14 -12 7 -5 157 12 241 8 40 50 151 75 200 25 50 169 246 264 360 101
122 175 195 198 195 4 0 33 -24 65 -52z m2979 -42 c53 -44 112 -97 131 -118
33 -37 34 -39 19 -68 -9 -17 -45 -59 -81 -95 -57 -58 -69 -65 -103 -65 -54 0
-126 33 -187 85 -7 6 -24 19 -38 29 -15 11 -39 30 -54 43 -35 30 -49 14 -26
-29 11 -18 22 -35 25 -38 3 -3 12 -14 20 -26 22 -33 117 -141 192 -218 217
-224 326 -357 374 -456 27 -55 35 -141 20 -198 -9 -33 -60 -136 -69 -140 -4
-2 -8 -9 -8 -16 0 -6 -17 -28 -37 -48 -55 -52 -299 -227 -340 -244 -32 -14
-37 -14 -53 3 -39 40 -139 107 -210 140 -56 26 -118 50 -162 63 -27 8 -48 17
-48 21 0 28 125 163 162 175 10 3 18 9 18 13 0 12 78 33 124 33 56 0 116 -25
203 -84 40 -26 75 -48 78 -48 3 0 15 -9 27 -20 25 -23 38 -18 38 16 0 50 -43
104 -230 295 -206 209 -283 293 -288 315 -2 8 -8 14 -13 14 -5 0 -9 7 -9 15 0
8 -3 15 -8 15 -7 0 -35 56 -57 116 -6 16 -12 57 -14 90 -5 120 72 237 261 397
91 76 205 134 235 118 6 -3 55 -42 108 -85z m-4510 -157 c175 -244 178 -254
108 -347 -37 -49 -162 -173 -230 -229 -77 -62 -202 -185 -208 -203 -3 -11 1
-33 10 -50 17 -33 122 -141 194 -200 24 -19 55 -45 69 -58 15 -13 46 -37 70
-54 23 -17 42 -37 42 -43 0 -16 -111 -119 -217 -202 l-82 -63 -38 21 c-31 17
-119 87 -169 134 -6 5 -26 24 -45 40 -19 17 -45 46 -59 65 -13 19 -33 44 -42
55 -22 24 -115 210 -123 245 -2 14 -13 59 -23 100 -18 71 -22 208 -9 265 24
101 86 245 138 322 16 23 29 44 29 48 0 4 6 12 13 19 6 7 41 46 77 87 96 109
190 202 251 248 l54 41 37 -40 c21 -21 89 -112 153 -201z m718 212 c82 -140
170 -190 262 -151 83 35 119 8 72 -53 -52 -69 -143 -150 -163 -146 -4 0 -10
-4 -13 -10 -11 -17 -122 -38 -190 -35 -52 2 -79 10 -133 38 -38 20 -73 36 -77
36 -13 0 -33 -52 -39 -105 -16 -133 4 -264 58 -395 33 -78 72 -154 83 -158 4
-2 7 -9 7 -14 0 -17 102 -147 163 -209 31 -31 92 -82 136 -114 48 -34 78 -62
74 -69 -27 -42 -233 -255 -264 -271 -23 -12 -30 -11 -70 12 -24 15 -51 35 -60
45 -9 10 -20 18 -24 18 -6 0 -45 39 -121 123 -84 93 -171 240 -199 336 -25 85
-28 105 -31 241 -3 139 10 242 42 330 22 59 67 164 74 170 3 3 14 21 24 40 33
59 100 141 188 230 149 150 170 162 201 111z m1569 19 c6 0 48 -39 95 -86 98
-100 82 -101 203 15 41 39 79 71 83 71 15 0 100 -70 124 -102 48 -64 68 -137
49 -173 -38 -69 -169 -205 -197 -205 -4 0 -37 29 -73 65 -35 36 -67 65 -71 65
-3 0 -6 -24 -5 -52 1 -55 2 -502 1 -528 0 -8 0 -116 0 -240 1 -124 0 -232 0
-240 0 -8 -2 -73 -3 -145 l-3 -130 -210 0 -210 0 -5 685 -5 685 -22 36 c-12
19 -31 44 -43 54 -11 10 -20 24 -20 31 0 14 152 144 169 144 6 0 11 4 11 9 0
12 92 51 108 46 8 -3 18 -5 24 -5z m-2876 -3129 c3 -2 -84 -219 -94 -238 -10
-17 -42 -18 -601 -18 -325 0 -591 2 -591 5 0 13 172 236 188 245 12 6 214 9
558 8 296 -1 540 -2 540 -2z m1341 0 c9 -1 11 -33 8 -123 -2 -68 -4 -125 -4
-128 -1 -3 -283 -5 -627 -5 -621 0 -625 0 -621 20 9 39 69 200 81 220 13 20
23 20 582 18 313 -1 574 -2 581 -2z m550 -1 c29 3 59 2 67 -2 8 -5 17 -4 21 2
4 6 11 7 17 4 13 -9 124 -8 137 0 5 4 12 2 16 -4 4 -6 10 -8 14 -6 9 6 46 6
308 6 l201 0 13 -37 c7 -21 14 -40 14 -43 1 -3 5 -12 8 -20 9 -21 37 -100 47
-131 l8 -26 -624 0 c-397 0 -627 3 -630 9 -9 14 -11 108 -3 108 4 0 4 15 0 33
-3 17 -6 48 -6 67 l0 35 133 0 c72 0 132 3 132 6 0 3 17 3 38 0 20 -4 61 -4
89 -1z m1074 -6 c6 6 98 8 132 3 15 -2 30 -1 32 3 3 5 13 6 23 4 26 -7 532
-10 532 -3 0 3 17 3 38 0 20 -4 61 -4 89 -1 29 3 59 2 67 -2 8 -5 17 -4 21 1
3 7 15 7 29 1 13 -5 27 -6 30 -3 3 3 9 -2 13 -13 4 -10 13 -25 20 -34 7 -8 37
-49 67 -90 31 -41 59 -79 64 -85 4 -5 11 -15 15 -21 5 -9 -150 -11 -589 -11
l-596 1 -10 25 c-6 14 -14 36 -19 49 -5 12 -13 33 -19 47 -5 14 -14 35 -19 48
-5 12 -14 35 -20 50 -6 15 -11 29 -11 31 0 1 16 3 36 4 20 1 39 4 42 7 3 3 10
0 17 -5 7 -5 14 -8 16 -6z m-4209 -437 c98 2 245 3 338 2 30 0 60 0 65 1 6 2
15 1 20 0 6 -1 42 -2 80 -2 164 2 272 2 308 -1 21 -1 41 1 44 5 2 5 9 5 15 2
6 -4 53 -7 104 -6 52 0 94 -2 94 -5 0 -7 -142 -367 -147 -373 -5 -5 -1383 -7
-1383 -2 0 5 72 107 79 112 5 3 19 22 32 42 13 20 56 79 94 131 67 92 71 95
108 95 21 0 41 3 45 6 4 4 8 4 9 -1 2 -4 45 -7 95 -6z m1586 1 c59 1 150 1
202 1 52 1 120 1 150 0 30 0 60 0 65 1 6 2 15 1 20 0 6 -1 42 -2 80 -2 135 2
150 2 190 1 22 0 83 0 135 0 52 0 109 -1 125 -2 l30 -2 0 -180 c0 -99 -3 -185
-7 -190 -4 -7 -256 -10 -725 -10 -689 0 -718 1 -715 19 2 10 26 79 53 153 27
74 49 141 49 149 0 8 5 14 10 14 6 0 10 11 10 25 l0 25 95 -2 c52 -1 98 1 101
5 4 4 11 4 16 1 5 -4 58 -6 116 -6z m2490 -13 c10 -10 120 -315 128 -351 l4
-20 -723 0 -722 1 -2 60 c-2 103 -5 310 -4 315 2 11 1310 5 1319 -5z m1454 5
c2 -3 15 -19 29 -36 13 -17 31 -41 39 -54 13 -19 40 -55 77 -105 71 -92 123
-166 123 -173 0 -5 -309 -8 -686 -8 -600 1 -688 3 -695 16 -11 20 -32 72 -63
150 -36 93 -43 114 -45 125 -1 6 -9 20 -17 33 -8 12 -12 22 -8 22 4 0 1 6 -5
13 -6 8 -9 16 -7 18 7 6 1254 5 1258 -1z m-4687 -562 c2 -2 -12 -41 -31 -87
-19 -47 -34 -91 -34 -98 0 -7 -4 -13 -10 -13 -5 0 -10 -6 -10 -13 0 -11 -28
-85 -75 -202 -5 -11 -9 -22 -10 -25 -1 -3 -5 -12 -8 -20 -14 -33 -25 -65 -23
-71 0 -3 -5 -13 -12 -21 -11 -14 -110 -15 -832 -16 l-820 0 28 38 c15 21 79
109 142 195 63 86 143 196 178 243 45 63 71 88 90 92 28 5 1422 4 1427 -2z
m1727 -204 c-3 -182 -8 -335 -11 -355 -1 -7 -1701 -10 -1701 -4 0 4 48 140 60
170 4 11 16 43 25 70 9 28 23 64 31 82 8 17 14 35 14 41 0 5 9 31 19 58 10 27
26 70 36 96 12 34 22 48 38 50 12 2 353 2 757 2 l735 -2 -3 -208z m1718 183
c5 -12 41 -112 80 -222 39 -110 77 -214 85 -231 7 -18 17 -48 21 -68 6 -35 6
-36 -18 -27 -14 5 -31 5 -38 1 -8 -5 -17 -7 -20 -5 -6 3 -330 6 -390 3 -8 0
-62 0 -120 1 -154 2 -483 3 -497 2 -7 -1 -19 -1 -25 -2 -7 -1 -60 -1 -118 0
-58 1 -186 1 -284 1 -98 0 -180 1 -182 3 -2 1 -6 130 -9 285 l-6 282 756 0
756 -1 9 -22z m1696 -30 c20 -28 41 -53 46 -55 4 -2 8 -8 8 -13 0 -5 29 -48
65 -94 36 -47 65 -88 65 -92 0 -3 8 -13 18 -22 9 -9 29 -34 44 -56 15 -22 50
-71 78 -110 39 -53 47 -71 36 -75 -8 -3 -101 -3 -206 0 -106 3 -196 3 -200 0
-4 -3 -58 -3 -120 0 -62 3 -116 3 -120 0 -4 -3 -94 -3 -200 0 -106 3 -196 3
-200 0 -4 -3 -58 -3 -120 0 -62 3 -116 3 -120 0 -4 -3 -83 -3 -175 0 l-167 5
-19 50 c-11 28 -24 59 -29 70 -21 46 -140 356 -146 380 -3 14 -10 28 -15 31
-5 3 -9 12 -9 19 0 13 103 15 724 15 l725 -1 37 -52z m-7047 -698 c7 5 28 5
47 1 18 -4 35 -5 38 -3 3 3 53 4 113 3 59 0 115 -1 123 -1 8 0 80 0 160 0 80
0 150 0 155 0 6 0 19 0 30 1 11 1 50 1 87 0 36 -1 70 0 75 3 4 2 17 1 28 -3
11 -4 30 -4 42 1 12 5 25 4 28 0 3 -5 20 -6 38 -2 18 5 41 5 52 1 11 -4 29 -4
40 -1 11 4 29 6 40 5 32 -5 53 -5 195 -5 74 0 142 -1 150 -1 8 0 20 1 25 2 6
1 40 2 77 1 l67 -1 -9 -27 c-4 -16 -26 -73 -49 -128 -23 -54 -41 -105 -41
-112 0 -7 -5 -13 -11 -13 -5 0 -8 -4 -5 -8 3 -5 -2 -22 -10 -38 -9 -16 -15
-30 -15 -32 1 -1 -6 -16 -14 -32 -8 -16 -16 -33 -17 -37 -4 -22 -16 -53 -86
-228 l-77 -190 -992 0 c-546 0 -993 3 -993 8 0 4 69 100 153 213 239 323 341
461 357 485 8 12 20 27 25 33 6 6 22 27 35 46 13 19 29 40 36 47 13 13 76 22
84 11 3 -4 11 -3 19 1z m1924 1 c18 4 41 4 52 0 11 -4 24 -5 28 -3 5 3 56 4
115 3 59 0 114 -1 122 -1 8 0 80 0 160 0 80 0 150 0 155 0 6 0 19 0 30 1 11 1
50 1 87 0 36 -1 70 0 75 3 4 2 17 1 28 -3 11 -4 30 -4 42 1 12 5 25 4 28 0 3
-5 20 -6 38 -2 18 5 41 5 52 1 11 -4 29 -4 40 -1 11 4 29 6 40 5 11 -2 29 -3
40 -4 16 -1 263 -2 300 -1 111 2 150 2 202 2 l63 -1 -5 -222 c-3 -123 -7 -304
-10 -403 -2 -99 -4 -189 -4 -200 -1 -20 -8 -20 -1026 -20 -564 0 -1025 1
-1025 3 0 4 156 436 188 522 9 25 17 47 18 50 0 3 3 12 7 20 3 8 22 62 43 120
33 94 73 159 82 132 2 -6 16 -7 35 -2z m3704 -40 c6 -19 28 -80 48 -135 20
-55 46 -127 57 -160 11 -33 25 -71 31 -85 6 -14 11 -30 13 -37 1 -7 21 -63 44
-125 23 -62 53 -142 66 -178 13 -36 24 -70 24 -76 0 -8 -306 -10 -1022 -10
l-1023 1 -1 40 c-1 22 -5 171 -8 330 -4 160 -8 326 -9 370 -2 44 -2 85 0 91 3
8 251 11 886 10 l882 -1 12 -35z m1991 -39 c146 -198 201 -273 269 -364 40
-54 73 -102 73 -107 0 -4 4 -10 8 -12 5 -1 43 -50 85 -108 42 -58 87 -118 99
-134 13 -16 24 -32 26 -36 1 -4 -446 -6 -994 -6 l-996 1 -150 375 c-82 206
-157 396 -167 421 l-18 46 854 0 855 0 56 -76z"/>
<path d="M3962 10078 c-130 -165 -166 -265 -165 -463 0 -128 11 -189 60 -335
43 -128 186 -406 215 -418 5 -2 8 -10 8 -17 0 -7 3 -15 8 -17 4 -1 27 -28 52
-58 60 -74 163 -174 230 -224 30 -22 57 -43 60 -46 3 -3 16 -11 28 -18 29 -16
47 -3 98 74 97 145 136 350 111 574 -13 115 -73 296 -145 434 -14 28 -27 53
-27 56 -7 34 -155 236 -232 316 -73 76 -228 204 -247 204 -2 0 -27 -28 -54
-62z"/>
<path d="M6869 9398 c0 -139 -1 -370 -3 -512 -2 -257 -1 -260 22 -294 26 -39
95 -104 120 -113 38 -14 95 36 119 106 6 17 15 39 19 50 39 104 52 315 28 445
-27 142 -77 267 -164 413 -52 87 -109 157 -128 157 -9 0 -12 -68 -13 -252z"/>
<path d="M9091 9528 c-16 -42 -43 -123 -48 -143 -42 -179 6 -384 84 -354 39
14 140 111 180 170 l24 37 -22 38 c-67 119 -177 274 -195 274 -8 0 -18 -10
-23 -22z"/>
<path d="M11227 9543 c-26 -43 -76 -254 -71 -302 17 -179 55 -242 120 -201 32
19 144 125 144 135 0 3 9 15 19 26 30 33 23 51 -83 209 -28 41 -54 77 -58 78
-5 2 -8 9 -8 16 0 27 -52 58 -63 39z"/>
<path d="M4865 7966 c-42 -19 -105 -71 -134 -113 l-26 -35 0 -351 c-1 -206 3
-360 8 -371 9 -19 10 -19 28 3 36 44 167 25 184 -28 8 -25 -10 -68 -35 -81
-26 -14 -26 -47 0 -55 129 -41 260 27 314 164 50 128 70 402 40 536 -33 145
-120 276 -211 317 -54 24 -130 30 -168 14z"/>
<path d="M9713 7236 c-26 -41 -59 -144 -68 -217 -4 -30 -9 -57 -12 -62 -10
-16 -3 -156 11 -215 8 -34 11 -62 8 -62 -3 0 -1 -5 6 -12 7 -7 12 -20 12 -30
0 -10 4 -26 9 -36 5 -9 23 -48 40 -86 18 -38 46 -89 63 -115 29 -43 163 -181
177 -181 3 0 7 96 8 213 1 116 2 292 3 390 2 177 1 179 -25 218 -14 22 -43 57
-63 78 -20 21 -60 64 -89 95 -29 31 -53 56 -55 56 -2 0 -13 -15 -25 -34z"/>
<path d="M7816 7128 c-16 -25 -29 -106 -30 -183 0 -49 18 -205 24 -212 3 -3 3
-5 15 -48 13 -50 74 -164 108 -202 63 -69 83 -89 167 -164 88 -78 149 -124
154 -118 2 2 11 19 20 37 17 33 24 167 12 222 -4 14 -8 41 -11 60 -5 34 -30
119 -57 190 -30 80 -154 280 -215 345 -45 49 -95 83 -135 90 -31 6 -38 4 -52
-17z"/>
<path d="M6185 7177 c-4 -12 -8 -26 -10 -32 -1 -5 -13 -44 -26 -85 -19 -59
-23 -96 -22 -170 1 -80 6 -135 13 -135 1 0 3 -8 5 -19 7 -34 47 -68 74 -61 32
8 176 148 191 186 11 25 9 34 -15 76 -38 65 -148 227 -157 231 -5 2 -8 9 -8
16 0 22 -38 16 -45 -7z"/>
</g>
</svg>
